#!OML:ASF H:\Dans Jumps\Project 1\Capture day 1\Session 1\subject.ASF
:FULLY-SPECIFIED
:DEGREES
181
root 0.582432 17.3115 -14.7536 7.68386 -0.681489 -1.65691
lowerback 2.82957 -0.616248 0.342359
upperback 4.46138 -0.86282 1.89882
thorax 3.02465 -0.455263 1.76249
lowerneck -12.0135 0.594117 -1.64551
upperneck 28.806 1.3463 -0.379759
head 11.315 0.378776 0.320181
rclavicle 6.85807e-015 4.37326e-015
rhumerus -25.8503 -15.7391 -78.4558
rradius 26.1882
rwrist 28.9068
rhand -18.8259 -26.422
rfingers 7.12502
rthumb 7.47319 -56.27
lclavicle 6.85807e-015 4.37326e-015
lhumerus -21.3159 -0.795648 87.2753
lradius 19.8554
lwrist 8.28603
lhand -26.464 -4.09163
lfingers 7.12502
lthumb 0.0976061 25.8881
rfemur -21.8043 -1.58816 20.0764
rtibia 31.4703
rfoot -15.8436 -4.09194
rtoes 8.03779
lfemur -21.4439 8.55736 -18.8162
ltibia 30.4696
lfoot -13.6639 6.77367
ltoes -3.07023
182
root 0.58408 17.3068 -14.7727 7.79689 -0.695051 -1.6395
lowerback 2.93377 -0.613885 0.326347
upperback 4.48364 -0.858586 1.89797
thorax 2.98932 -0.45365 1.77168
lowerneck -12.0568 0.597758 -1.64274
upperneck 28.7008 1.3552 -0.396223
head 11.2834 0.382067 0.314713
rclavicle -1.14301e-014 3.73715e-014
rhumerus -25.9647 -15.7579 -78.3481
rradius 26.2041
rwrist 28.8763
rhand -18.8383 -26.4077
rfingers 7.12502
rthumb 7.46127 -56.2562
lclavicle -1.14301e-014 3.73715e-014
lhumerus -21.4424 -0.819189 87.2244
lradius 19.8894
lwrist 8.47562
lhand -26.4603 -4.06639
lfingers 7.12502
lthumb 0.101145 25.9133
rfemur -22.0931 -1.57175 20.0565
rtibia 31.6401
rfoot -15.8696 -4.10516
rtoes 8.10496
lfemur -21.7371 8.56384 -18.8697
ltibia 30.6386
lfoot -13.6654 6.78123
ltoes -3.12461
183
root 0.585931 17.3017 -14.7924 7.91288 -0.702775 -1.62292
lowerback 3.04293 -0.613092 0.315252
upperback 4.50666 -0.85637 1.89735
thorax 2.95201 -0.452888 1.77839
lowerneck -12.0998 0.601372 -1.63267
upperneck 28.5898 1.36489 -0.422042
head 11.2497 0.385441 0.304666
rclavicle -1.78906e-015 8.34896e-015
rhumerus -26.099 -15.7482 -78.2394
rradius 26.2353
rwrist 28.8103
rhand -18.8554 -26.3775
rfingers 7.12502
rthumb 7.44475 -56.2265
lclavicle -1.78906e-015 8.34896e-015
lhumerus -21.5826 -0.850343 87.1744
lradius 19.9263
lwrist 8.67527
lhand -26.4652 -4.05637
lfingers 7.12502
lthumb 0.0964676 25.9233
rfemur -22.3945 -1.5624 20.0378
rtibia 31.825
rfoot -15.9009 -4.11592
rtoes 8.17868
lfemur -22.0394 8.56085 -18.9225
ltibia 30.8149
lfoot -13.6713 6.7911
ltoes -3.15514
184
root 0.587981 17.2961 -14.8125 8.03189 -0.705583 -1.60385
lowerback 3.15518 -0.613454 0.306099
upperback 4.53084 -0.855641 1.89556
thorax 2.91417 -0.452785 1.78285
lowerneck -12.1425 0.604981 -1.61729
upperneck 28.4745 1.37488 -0.453727
head 11.2145 0.388861 0.29161
rclavicle 2.5842e-015 2.0276e-014
rhumerus -26.2458 -15.7245 -78.1306
rradius 26.2726
rwrist 28.7239
rhand -18.8638 -26.3648
rfingers 7.12502
rthumb 7.43657 -56.2141
lclavicle 2.5842e-015 2.0276e-014
lhumerus -21.7337 -0.88834 87.1242
lradius 19.9632
lwrist 8.87513
lhand -26.4767 -4.03343
lfingers 7.12502
lthumb 0.0853083 25.9463
rfemur -22.7087 -1.56206 20.017
rtibia 32.025
rfoot -15.9362 -4.12486
rtoes 8.23689
lfemur -22.3503 8.54852 -18.9782
ltibia 30.9989
lfoot -13.6824 6.80554
ltoes -3.17274
185
root 0.590269 17.2901 -14.8328 8.15602 -0.70642 -1.58235
lowerback 3.26616 -0.614121 0.299534
upperback 4.55645 -0.855321 1.8923
thorax 2.8785 -0.452786 1.78432
lowerneck -12.1905 0.608376 -1.59897
upperneck 28.3593 1.38498 -0.489011
head 11.1805 0.392191 0.276804
rclavicle 1.68967e-015 -1.23246e-014
rhumerus -26.3997 -15.6951 -78.0201
rradius 26.3095
rwrist 28.6355
rhand -18.8601 -26.3566
rfingers 7.12502
rthumb 7.44024 -56.2058
lclavicle 1.68967e-015 -1.23246e-014
lhumerus -21.8899 -0.926313 87.0718
lradius 19.9946
lwrist 9.06646
lhand -26.4931 -4.01662
lfingers 7.12502
lthumb 0.0694458 25.9631
rfemur -23.038 -1.56948 19.9936
rtibia 32.24
rfoot -15.9759 -4.12852
rtoes 8.28287
lfemur -22.672 8.53145 -19.0384
ltibia 31.1912
lfoot -13.6984 6.82598
ltoes -3.19114
186
root 0.592611 17.2836 -14.8535 8.28309 -0.705321 -1.55564
lowerback 3.38078 -0.615914 0.28919
upperback 4.58199 -0.856482 1.88792
thorax 2.84082 -0.453616 1.78683
lowerneck -12.2359 0.613497 -1.57518
upperneck 28.2396 1.39819 -0.531882
head 11.1445 0.396649 0.258705
rclavicle 1.39149e-014 -8.34896e-015
rhumerus -26.5661 -15.6614 -77.9054
rradius 26.3434
rwrist 28.5492
rhand -18.857 -26.334
rfingers 7.12502
rthumb 7.44316 -56.1831
lclavicle 1.39149e-014 -8.34896e-015
lhumerus -22.0576 -0.959966 87.0181
lradius 20.0241
lwrist 9.2479
lhand -26.5029 -3.97828
lfingers 7.12502
lthumb 0.0600374 26.0015
rfemur -23.3805 -1.58111 19.9646
rtibia 32.4711
rfoot -16.0228 -4.1294
rtoes 8.33006
lfemur -23.0033 8.51208 -19.1051
ltibia 31.3931
lfoot -13.7213 6.84775
ltoes -3.20195
